<svg viewBox="0 0 324.01 110.7" xmlns="http://www.w3.org/2000/svg"><g fill="#222"><path d="m170.78 46.45c-.28-.39-.56-1.03-.84-1.91l-1.6-4.96c-.29-.93-.64-1.69-1.04-2.28s-.96-1.03-1.68-1.32c-.63-.26-1.48-.41-2.53-.49 1.44-.2 2.67-.56 3.68-1.1 1.11-.61 1.95-1.39 2.51-2.34s.84-2.04.84-3.25-.31-2.37-.93-3.38-1.61-1.82-2.97-2.43-3.15-.91-5.36-.91h-14.36v.88l2.9 1.16v22.72l-2.9 1.16v.88h11.98v-.88l-2.9-1.16v-10.2h3.06c.72 0 1.3.1 1.73.31s.79.57 1.07 1.1.55 1.27.8 2.23l1.34 4.86c.23.88.52 1.6.87 2.16s.86.98 1.53 1.27 1.57.45 2.72.5 2.63 0 4.46-.13v-1.6c-.56 0-1.03-.05-1.4-.15s-.7-.35-.98-.74zm-11.76-12.25h-3.44v-9.66h2.42c1.44 0 2.6.19 3.48.57s1.52.93 1.91 1.65.59 1.59.59 2.62c0 1.57-.46 2.77-1.38 3.59s-2.11 1.23-3.58 1.23z"/><path d="m198 25.37c-1.22-1.22-2.68-2.16-4.37-2.82s-3.57-.99-5.64-.99-4.04.34-5.79 1.01-3.27 1.63-4.55 2.87-2.27 2.71-2.97 4.42-1.05 3.59-1.05 5.66.33 3.97.99 5.68 1.6 3.17 2.82 4.39 2.68 2.16 4.37 2.82 3.57.99 5.64.99 4.04-.34 5.79-1.01 3.27-1.63 4.55-2.87 2.27-2.71 2.97-4.42 1.05-3.59 1.05-5.66-.33-3.99-.99-5.69-1.6-3.16-2.82-4.38zm-3.6 16.91c-.63 1.51-1.51 2.63-2.63 3.37s-2.41 1.11-3.86 1.11-2.87-.46-4.06-1.39-2.11-2.31-2.77-4.16-.99-4.14-.99-6.89c0-2.27.32-4.15.95-5.65s1.51-2.62 2.63-3.36 2.41-1.11 3.86-1.11c1.53 0 2.89.46 4.06 1.39s2.09 2.31 2.76 4.15 1 4.14 1 6.9c0 2.25-.32 4.13-.95 5.64z"/><path d="m221.89 35.06c-.73-.61-1.54-1.12-2.43-1.53s-1.78-.77-2.67-1.09c-.89-.31-1.75-.6-2.58-.89s-1.57-.61-2.23-.96-1.18-.78-1.57-1.29-.58-1.13-.58-1.86c0-1.07.38-1.91 1.14-2.54s1.97-.94 3.62-.94c.8 0 1.58.13 2.35.38.56.19 1.1.46 1.62.79l3.49 5.2 1.24-.28-1.56-9.38h-.72l-1.9 1.47c-.27-.08-.55-.15-.82-.21-1.09-.24-2.28-.36-3.56-.36-2.05 0-3.84.32-5.35.97s-2.68 1.56-3.51 2.73-1.24 2.56-1.24 4.16c0 1.17.17 2.18.52 3.02s.82 1.55 1.42 2.13 1.29 1.07 2.06 1.48 1.59.76 2.44 1.07c.85.32 1.73.62 2.63.91s1.73.62 2.48 1 1.36.86 1.83 1.44.7 1.31.7 2.19-.23 1.67-.68 2.3-1.14 1.1-2.07 1.42-2.11.48-3.55.48c-.76 0-1.47-.1-2.15-.24l-4.77-6.14h-1.26l1.74 7.72c1.24.45 2.43.77 3.57.94s2.42.26 3.85.26c2.08 0 3.94-.33 5.58-.99s2.94-1.64 3.91-2.94 1.45-2.91 1.45-4.83c0-1.31-.22-2.41-.67-3.31s-1.04-1.66-1.77-2.27z"/><path d="m234.22 48-3.14-1.26 1.18-19.93 9.1 22.21h3.86l8.8-22.21 1.52 20.15-3.14 1.04v.88h12.46v-.88l-3.02-1.22-1.88-22.66 2.96-1.16v-.88h-9.7l-8 20.23-8.14-20.23h-10.26v.88l3.24 1.36-1.54 22.42-3.16 1.26v.88h8.86z"/><path d="m278.87 48-2.9-1.16v-22.72l2.9-1.16v-.88h-11.98v.88l2.9 1.16v22.72l-2.9 1.16v.88h11.98z"/><path d="m284.4 46.84-2.9 1.16v.88h8.48v-.88l-3.2-1.16v-20.41l15.82 22.59h3.78v-24.9l2.9-1.16v-.88h-8.48v.88l3.22 1.16v16.07l-12.9-18.11h-9.98v.78l3.26 1.64z"/><path d="m323.67 22.96v-.88h-11.97v.88l2.89 1.16v22.72l-2.89 1.16v.88h11.97v-.88l-2.89-1.16v-22.72z"/><path d="m166.94 83.05c-.72.31-1.47.57-2.28.75-1.09.23-2.19.35-3.29.35-1.68 0-3.25-.29-4.71-.86s-2.74-1.41-3.84-2.52c-1.1-1.1-1.96-2.47-2.58-4.08-.62-1.62-.94-3.47-.94-5.57 0-1.83.26-3.47.78-4.9s1.27-2.65 2.26-3.63 2.18-1.73 3.57-2.23c1.39-.51 2.96-.76 4.72-.76 1.2 0 2.32.15 3.38.46.79.23 1.66.58 2.6 1.05l2.52 5.35.64-.14-1.33-8.54h-.21l-1.43 1.36c-.81-.23-1.58-.42-2.27-.54-.95-.16-1.91-.24-2.89-.24-3 0-5.6.56-7.78 1.67s-3.86 2.68-5.04 4.71-1.76 4.41-1.76 7.16c0 2.13.35 4.03 1.06 5.68.71 1.66 1.71 3.06 2.99 4.2 1.29 1.14 2.8 2.01 4.54 2.6s3.64.89 5.69.89c1.46 0 2.88-.14 4.26-.41s2.54-.62 3.46-1.03l.78-5.48h-.7z"/><path d="m196.03 62.16c-1.16-1.2-2.51-2.14-4.08-2.8-1.56-.66-3.26-.99-5.11-.99s-3.5.33-5.03.99-2.86 1.6-3.99 2.81c-1.12 1.21-2 2.64-2.61 4.28-.62 1.64-.93 3.44-.93 5.39s.32 3.74.96 5.38 1.53 3.06 2.69 4.26 2.52 2.13 4.08 2.8 3.27 1 5.1 1 3.51-.33 5.04-1c1.53-.66 2.85-1.6 3.98-2.81 1.12-1.21 2-2.64 2.61-4.28s.93-3.44.93-5.39-.32-3.74-.96-5.38-1.53-3.06-2.69-4.26zm.16 16.21c-.82 1.79-1.99 3.2-3.52 4.2-1.53 1.01-3.37 1.51-5.53 1.51s-3.88-.5-5.47-1.51-2.84-2.45-3.75-4.34c-.91-1.88-1.37-4.14-1.37-6.77 0-2.35.41-4.42 1.23-6.21s2-3.18 3.53-4.19 3.37-1.51 5.52-1.51 3.88.5 5.47 1.51 2.84 2.45 3.75 4.34 1.37 4.14 1.37 6.77c0 2.34-.41 4.41-1.23 6.2z"/><path d="m219.51 83.63h-10.97v-23.57l3.25-.76v-.55h-8.6v.55l3.26.76v23.52l-3.26.76v.54h4.22 1.13 11l1.77 1h.25l1.52-7.98-.56-.15z"/><path d="m242.54 83.63h-10.98v-23.57l3.26-.76v-.55h-8.6v.55l3.26.76v23.52l-3.26.76v.54h4.21 1.13 11l1.78 1h.25l1.52-7.98-.57-.15z"/><path d="m266.45 83.63h-11.86v-11.84l7.94.05.79 4.52h.84l-.15-5.17.15-5.18h-.84l-.79 4.5-7.94.09v-10.6h11.33l2.55 5.7.63-.12-1.1-7.63h-.23l-1.74.8h-11.44-1.62-3.72v.55l3.25.76v23.52l-3.25.76v.54h3.72 1.62 11.91l1.74 1h.21l1.47-7.82-.57-.16z"/><path d="m290.09 73.75 4 .8v8.16c-.29.19-.62.36-1 .51-.73.3-1.54.53-2.42.69s-1.73.24-2.56.24c-2.25 0-4.27-.51-6.07-1.52s-3.23-2.5-4.29-4.46-1.59-4.36-1.59-7.21c0-1.83.25-3.45.74-4.87.49-1.41 1.22-2.6 2.16-3.57.95-.97 2.11-1.7 3.48-2.2s2.93-.75 4.69-.75c1.31 0 2.53.17 3.66.53.74.23 1.52.57 2.34 1l2.5 5.34.64-.14-1.31-8.54h-.23l-1.43 1.35c-.77-.21-1.51-.39-2.18-.51-.96-.17-1.95-.25-2.97-.25-2.96 0-5.52.56-7.67 1.67s-3.8 2.68-4.95 4.71-1.73 4.41-1.73 7.16c0 2.13.36 4.03 1.09 5.68.73 1.66 1.74 3.06 3.03 4.2s2.8 2.01 4.51 2.6 3.56.89 5.54.89c1.12 0 2.2-.08 3.26-.24 1.05-.16 2.05-.39 3-.68s1.82-.64 2.61-1.04v-.04l-.76-1.11v-7.64l2.52-.76v-.55h-8.6v.55z"/><path d="m318.81 83.63h-11.86v-11.84l7.94.05.8 4.52h.84l-.16-5.17.16-5.18h-.84l-.8 4.5-7.94.09v-10.6h11.33l2.56 5.7.62-.12-1.09-7.63h-.24l-1.73.8h-11.45-1.62-3.72v.55l3.26.76v23.52l-3.26.76v.54h3.72 1.62 11.92l1.73 1h.22l1.46-7.82-.57-.16z"/></g><path d="m127.75 90.15-7.4-3.01 3.75-8.77-3.75-9.8c1.62-.42 7.4.88 7.4 3.01v18.56z" fill="#ef3633"/><path d="m127.75 90.32c0 9.55-36.76-7.86-36.76 3.54v-18.56c0-12.19 36.76 5.19 36.76-3.54z" fill="#184274"/><path d="m90.99 75.64c.16 2.11 2.05 5.59 2.1 8.57l.27 6.12h-2.37v-14.68z" fill="#ef3633"/><path d="m104.89 78.2c-.65 1.7-1.3 3.42-1.95 5.16.35.04.69.09 1.04.15.13-.37.26-.73.39-1.1.68.12 1.35.25 2.03.39.13.42.26.83.39 1.26.35.08.71.16 1.06.25-.65-1.98-1.31-3.95-1.96-5.91-.33-.07-.67-.14-1-.2zm-.2 3.31c.23-.65.46-1.31.7-1.96.23.74.46 1.49.69 2.23-.46-.1-.93-.19-1.39-.27z" fill="#fff"/><path d="m95.03 79.85c.13-.19.27-.36.44-.49s.36-.22.56-.27c.22-.05.42-.04.6.04.19.07.35.21.5.4.22-.28.44-.56.66-.84-.21-.29-.47-.5-.78-.61s-.65-.13-1.03-.04c-.34.08-.65.23-.94.46s-.54.51-.76.84-.38.7-.5 1.09-.18.79-.18 1.2.06.76.18 1.06.28.53.5.71c.21.18.46.29.75.34s.6.03.94-.04c.38-.09.73-.24 1.04-.46s.57-.49.78-.84c-.22-.22-.44-.44-.66-.66-.15.24-.31.43-.5.57-.18.15-.39.25-.6.29-.2.05-.39.05-.56.01s-.32-.12-.44-.24c-.13-.12-.22-.27-.29-.46s-.1-.42-.1-.68.03-.51.1-.74c.07-.24.17-.45.29-.64z" fill="#fff"/><path d="m101.47 79.9c-.66-.05-1.32-.06-1.98-.05v-2.16c-.34 0-.68.02-1.02.05v5.47c.34-.03.68-.04 1.02-.05v-2.24c.66-.02 1.32 0 1.98.05v2.24c.34.02.67.05 1.01.09v-5.47c-.34-.04-.68-.07-1.01-.09z" fill="#fff"/><path d="m126.55 83.14c-.09-.15-.22-.26-.37-.31-.15-.06-.32-.09-.49-.1-.18-.01-.36-.02-.54-.01-.18 0-.35 0-.5-.01s-.27-.05-.36-.12-.14-.17-.14-.32c0-.11.03-.22.08-.33.06-.11.15-.2.27-.29.12-.08.28-.15.48-.21.19-.05.39-.08.6-.08s.41.04.61.11c.11-.36.21-.71.32-1.07-.2-.08-.44-.11-.7-.1-.27 0-.54.05-.82.13-.41.12-.76.27-1.03.48s-.48.45-.61.73-.2.58-.2.89c0 .29.04.52.13.69.09.18.21.31.36.4s.32.15.5.18.36.05.54.05.34 0 .5.02c.15 0 .27.04.37.1.09.06.14.16.14.3 0 .12-.03.22-.09.33-.06.1-.15.2-.27.29s-.28.16-.49.22c-.26.07-.52.08-.78.03s-.48-.15-.66-.28c-.11.34-.23.67-.34 1.01.2.16.46.27.78.32s.66.03 1.01-.06c.41-.11.76-.3 1.03-.55s.48-.54.62-.84c.14-.31.2-.62.2-.92 0-.28-.05-.5-.14-.65z" fill="#fff"/><path d="m111.22 83.38c.28-.08.5-.25.66-.51.15-.26.23-.59.23-1s-.08-.78-.23-1.11c-.16-.33-.37-.62-.66-.85-.28-.23-.62-.39-1.01-.49-.63-.16-1.26-.32-1.9-.47v5.47c.34.08.68.17 1.02.25v-1.53c.29.07.58.15.88.22h.04c.28.58.57 1.17.85 1.75.36.09.73.18 1.09.27-.33-.66-.65-1.33-.98-2zm-.37-2.52c.16.2.24.46.24.76s-.08.52-.24.64c-.16.13-.39.15-.7.07-.27-.07-.55-.14-.82-.2v-1.9c.27.07.55.14.82.2.31.08.54.22.7.42z" fill="#fff"/><path d="m119.98 81.11c-.65 1.81-1.3 3.59-1.95 5.35.35.04.69.06 1.04.08.13-.38.26-.78.39-1.16.68.03 1.35.03 2.03-.01.13.38.26.77.39 1.15.35-.03.71-.07 1.06-.12-.65-1.73-1.31-3.5-1.96-5.3-.33.01-.67.01-1 0zm-.2 3.32c.23-.69.46-1.38.7-2.07.23.7.46 1.38.7 2.07-.46.02-.93.02-1.39 0z" fill="#fff"/><path d="m118.28 81.02c-1.27-.12-2.54-.33-3.82-.59v1.03c.47.1.93.19 1.4.27v4.44c.34.06.68.11 1.01.16v-4.44c.47.07.93.12 1.4.17v-1.03z" fill="#fff"/><path d="m112.91 85.55c.34.08.68.16 1.02.23v-5.47c-.34-.07-.68-.15-1.02-.23z" fill="#fff"/><path d="m.34 90.04c.51-2.12 3.44-2.89 7.4-3.01l-3.75-8.77 3.75-9.8c-1.62-.42-7.4.88-7.4 3.01v18.56z" fill="#ef3633"/><path d="m.34 90.32c0 9.55 36.76-7.86 36.76 3.54v-18.56c0-12.19-36.76 5.19-36.76-3.54v18.56z" fill="#184274"/><path d="m37.14 75.64c-.16 2.11-2.05 5.59-2.1 8.57l-.27 6.12h2.37s0-14.68 0-14.68z" fill="#ef3633"/><path d="m10.14 84.57c0-1.48 0-2.96 0-4.44-.35 0-.7-.03-1.05-.06v5.47c1.1.09 2.2.07 3.29-.01 0-.34 0-.69 0-1.03-.75.06-1.5.09-2.25.07z" fill="#fff"/><path d="m14.02 84.34c0-.42 0-.85 0-1.27.7-.09 1.39-.21 2.09-.33v-.99c-.7.13-1.39.24-2.09.33 0-.39 0-.78 0-1.18.79-.11 1.58-.24 2.37-.39 0-.34 0-.68 0-1.02-1.13.21-2.27.39-3.4.51v5.47c1.16-.12 2.32-.31 3.49-.53 0-.34 0-.68 0-1.02-.82.15-1.63.29-2.45.4z" fill="#fff"/><path d="m18.48 80.56c.13-.18.29-.33.47-.46.18-.12.38-.2.59-.25.23-.04.44-.03.64.03.19.06.37.19.54.37.22-.29.44-.58.66-.87-.22-.27-.49-.46-.81-.56s-.68-.12-1.08-.04c-.36.07-.69.21-.99.4-.3.2-.56.45-.79.75-.22.3-.39.63-.52 1-.12.37-.18.76-.18 1.17s.06.78.18 1.1.29.59.51.8.48.36.78.44.63.08.98.01c.32-.06.64-.18.96-.36s.61-.4.86-.67c0-.74 0-1.48 0-2.22-.32.05-.63.11-.95.17v1.6c-.07.06-.14.12-.21.16-.19.12-.39.2-.6.24s-.41.04-.59-.02c-.18-.05-.33-.14-.46-.27s-.23-.3-.3-.5-.11-.43-.11-.68c0-.26.04-.5.11-.73s.17-.43.3-.61z" fill="#fff"/><path d="m22.25 78.4v5.47c.35-.05.7-.1 1.05-.14 0-1.82 0-3.65 0-5.47-.35.04-.7.09-1.05.14z" fill="#fff"/><path d="m27.61 81.28c-.1-.2-.22-.36-.38-.48-.15-.12-.32-.22-.51-.3-.18-.08-.37-.14-.56-.19s-.36-.09-.51-.14-.28-.11-.37-.19-.14-.2-.14-.34c0-.11.03-.22.09-.32s.15-.18.27-.23c.12-.06.29-.09.5-.09.2 0 .4.03.62.11.21.07.42.19.62.34.11-.31.22-.62.33-.93-.21-.17-.45-.3-.72-.4-.28-.09-.56-.14-.84-.13-.43 0-.78.1-1.06.27s-.49.39-.63.66-.21.56-.21.87c0 .29.05.52.14.7s.22.33.37.43c.16.11.33.19.51.25.19.06.37.11.56.16.18.05.35.09.51.15.16.05.28.13.38.21.09.09.14.21.14.35 0 .11-.03.21-.09.3-.06.08-.15.15-.28.2s-.29.08-.5.08c-.27 0-.54-.04-.8-.13-.27-.09-.49-.21-.68-.36-.12.33-.24.66-.35.99.2.17.47.3.8.39.33.1.68.14 1.04.13.42 0 .78-.08 1.06-.23s.49-.34.63-.58.21-.52.21-.83c0-.28-.05-.52-.15-.72z" fill="#fff"/><path d="m115.99 31.18c-7.9-13.27-95.4-13.27-103.3 0-.14.23-.57.14-.57-.12v-17.18c0-18.06 104.43-18.06 104.43 0v17.18c0 .26-.43.35-.57.12z" fill="#0054a2"/><path d="m27.92 18.47c-.1-.12-.19-.32-.29-.6-.18-.54-.37-1.07-.55-1.61-.1-.3-.22-.54-.36-.72-.14-.17-.33-.28-.58-.33-.22-.04-.54-.02-.92.05.51-.19.96-.42 1.32-.69.39-.3.68-.64.87-1.02s.29-.78.29-1.2c0-.43-.11-.8-.32-1.11s-.56-.51-1.03-.62c-.47-.1-1.09-.07-1.85.12-.61.15-1.22.31-1.82.46-.23.05-.45.11-.68.17-.22.06-.44.11-.66.17-.59.16-1.19.31-1.78.47v.31c.33.04.66.09 1 .14v7.95c-.33.22-.67.45-1 .68v.31c1.37-.38 2.75-.73 4.13-1.07v-.31c-.33-.05-.67-.1-1-.15v-3.57c.35-.09.7-.18 1.06-.27.25-.06.45-.07.6-.04.15.04.27.13.37.29s.19.4.28.72c.15.53.31 1.06.46 1.59.08.29.18.52.3.69s.3.27.53.32.54.03.94-.04.91-.2 1.55-.39v-.56c-.19.04-.36.06-.49.05-.13 0-.24-.07-.34-.18zm-4.07-3.34c-.4.1-.79.2-1.19.3v-3.38l.84-.21c.5-.12.9-.15 1.2-.09s.53.2.66.42c.14.22.2.51.2.87 0 .55-.16 1.01-.48 1.37s-.73.6-1.24.73z" fill="#fff"/><path d="m42.06 8.61c-.43-.37-.94-.63-1.53-.78s-1.25-.17-1.98-.05c-.74.11-1.41.34-2.03.68-.61.34-1.14.76-1.59 1.28-.45.51-.79 1.09-1.04 1.73-.24.64-.37 1.32-.37 2.05s.11 1.37.35 1.92c.23.56.56 1.01.98 1.36.43.35.93.59 1.53.72.59.13 1.25.14 1.97.03.74-.11 1.41-.33 2.03-.65.61-.32 1.15-.73 1.6-1.22s.8-1.05 1.04-1.68c.25-.63.37-1.3.37-2.03s-.12-1.38-.35-1.95-.56-1.03-.99-1.41zm-1.26 6.09c-.22.56-.53 1-.92 1.31-.39.32-.84.51-1.35.59-.53.08-1.01 0-1.42-.26-.42-.26-.74-.69-.97-1.3s-.35-1.39-.35-2.35c0-.79.11-1.47.33-2.03s.53-1.01.92-1.33.84-.52 1.35-.6c.54-.08 1.01 0 1.42.27.41.26.73.7.97 1.31.23.61.35 1.4.35 2.37 0 .79-.11 1.46-.33 2.02z" fill="#fff"/><path d="m55.18 10.78c-.26-.2-.54-.36-.86-.49-.31-.12-.63-.23-.94-.32-.32-.09-.62-.17-.91-.25s-.55-.17-.79-.28c-.23-.11-.42-.24-.55-.41-.14-.17-.2-.38-.2-.63 0-.37.13-.68.4-.92s.69-.38 1.28-.42c.28-.02.56 0 .83.08.2.05.39.14.57.24.41.58.82 1.16 1.23 1.75.15-.04.29-.08.44-.12-.18-1.08-.37-2.17-.55-3.25-.08 0-.17 0-.25.01-.23.19-.45.37-.68.56-.09-.02-.19-.05-.28-.06-.39-.06-.8-.08-1.26-.04-.72.05-1.35.21-1.89.48-.53.27-.95.62-1.24 1.06s-.44.93-.44 1.49c0 .41.06.76.18 1.04s.29.52.5.7.45.34.73.46c.27.12.56.22.86.31s.61.17.93.25.61.17.87.29c.27.11.48.27.65.46.16.19.25.44.25.75 0 .32-.08.59-.24.82s-.4.41-.73.54-.74.22-1.25.26c-.27.02-.52 0-.76-.03-.56-.67-1.12-1.34-1.68-2.01-.15.01-.3.03-.44.04.2.88.41 1.76.61 2.65.44.12.86.2 1.26.22.4.03.85.02 1.36-.01.73-.05 1.39-.21 1.97-.48s1.04-.63 1.38-1.11c.34-.47.51-1.04.51-1.72 0-.46-.08-.84-.24-1.15s-.37-.56-.63-.76z" fill="#fff"/><path d="m73.5 6.95c.35-.12.7-.23 1.04-.35v-.31c-1.14-.07-2.28-.13-3.42-.17-.94 2.32-1.88 4.65-2.82 6.99-.96-2.38-1.92-4.76-2.87-7.12-1.21 0-2.42 0-3.62.02v.31c.38.15.76.31 1.14.46-.18 2.62-.36 5.23-.54 7.85-.37.15-.74.3-1.12.46v.31c1.04-.02 2.09-.03 3.13-.03v-.31c-.37-.15-.74-.29-1.11-.44.14-2.33.28-4.65.42-6.98 1.07 2.59 2.14 5.18 3.21 7.79.45 0 .91.02 1.36.03 1.04-2.57 2.07-5.13 3.11-7.67.18 2.36.36 4.72.53 7.08-.37.1-.74.21-1.11.32v.31c1.47.06 2.93.13 4.4.22v-.31c-.35-.17-.71-.33-1.06-.49-.22-2.66-.44-5.31-.66-7.97z" fill="#fff"/><path d="m80.39 7.05c.34.17.68.34 1.02.51v7.95c-.34.1-.68.2-1.02.31v.31c1.41.13 2.81.28 4.21.45v-.31c-.34-.18-.68-.35-1.02-.52v-7.96c.34-.1.68-.19 1.02-.29v-.31c-1.4-.17-2.81-.32-4.21-.45z" fill="#fff"/><path d="m96.81 9.43c.37.21.75.42 1.12.63v5.63c-1.5-2.41-2.99-4.82-4.5-7.19-1.16-.2-2.32-.39-3.49-.57v.27c.38.25.76.5 1.14.75v7.82c-.34.08-.68.16-1.01.25v.31c.99.15 1.98.31 2.97.48v-.31c-.37-.2-.75-.4-1.12-.59v-7.14c1.84 2.94 3.68 5.9 5.52 8.9l1.32.27v-8.72c.34-.07.67-.13 1.01-.19 0-.1 0-.21 0-.31-.98-.21-1.96-.41-2.95-.6v.31z" fill="#fff"/><path d="m109.16 12.31v-.31c-1.37-.38-2.75-.73-4.13-1.07v.31c.33.22.67.44 1 .66v7.95c-.33.05-.67.1-1 .15v.31c1.38.34 2.76.7 4.13 1.07v-.31c-.33-.23-.67-.45-1-.67v-7.95c.33-.05.67-.09 1-.14z" fill="#fff"/><path d="m64.69 26.29h-.02c-16.39 0-29.13 1.73-33.44 2.58 0 24.33 1.88 33.84 8 41.84 3.64 4.76 8.86 9.79 25.45 21.27 16.59-11.48 21.81-16.51 25.45-21.27 6.12-8 8-17.51 8-41.84-4.31-.85-17.05-2.58-33.44-2.58z" fill="#ef3633" stroke="#0056a2" stroke-miterlimit="10" stroke-width="3"/><path d="m93.09 84.21c0 8.91-58 8.91-58 0 0-.25-.32-.14-.32.12v17.18c0 11.82 58.64 11.82 58.64 0v-17.18c0-.26-.32-.37-.32-.12z" fill="#0054a2"/><path d="m44.94 96.06c-.31-.24-.69-.41-1.12-.5-.7-.15-1.4-.31-2.1-.48v6.12c.37.09.75.18 1.13.26v-1.69c.32.07.65.15.97.22.43.09.81.08 1.12-.03.31-.12.56-.32.73-.62s.26-.67.26-1.14c0-.45-.09-.87-.26-1.23-.17-.37-.41-.67-.73-.91zm-.41 2.65c-.18.15-.43.19-.78.11-.3-.07-.6-.14-.91-.2v-2.13c.3.07.6.14.91.2.34.07.6.22.78.44s.26.5.26.84-.09.58-.26.73z" fill="#fff"/><path d="m48.21 96.4c-.38-.06-.76-.13-1.14-.2v6.12c1.19.22 2.38.41 3.57.58v-1.16c-.81-.12-1.63-.24-2.44-.38v-4.97z" fill="#fff"/><path d="m52.77 100.63c.76.09 1.52.18 2.28.25v-1.11c-.76-.07-1.52-.16-2.28-.25v-1.32c.86.1 1.72.2 2.58.28v-1.14c-1.24-.12-2.48-.26-3.71-.42v6.12c1.27.17 2.53.31 3.8.43v-1.14c-.89-.08-1.78-.18-2.67-.28z" fill="#fff"/><path d="m60.09 101.37c-.82-1.27-1.63-2.55-2.45-3.85-.31-.02-.63-.05-.94-.07v6.12c.38.03.75.06 1.13.08v-3.72c.82 1.29 1.63 2.58 2.45 3.86.31.01.63.03.94.04v-6.12c-.38-.01-.75-.03-1.13-.04v3.71z" fill="#fff"/><path d="m62.74 103.87c.38 0 .77.01 1.15.01v-6.12c-.38 0-.77 0-1.15-.01z" fill="#fff"/><path d="m64.85 98.91c.53 0 1.05 0 1.58-.02v4.97c.38 0 .76-.02 1.14-.03v-4.97c.53-.02 1.05-.04 1.58-.06v-1.16c-1.43.07-2.87.11-4.3.12v1.16z" fill="#fff"/><path d="m73.32 100.73c0 .58-.1 1.01-.29 1.28-.19.28-.46.43-.81.46-.34.03-.61-.08-.8-.33-.19-.24-.29-.66-.29-1.23 0-1.13 0-2.26 0-3.39-.38.03-.77.05-1.15.07v3.42c0 .9.2 1.59.59 2.05.4.46.94.66 1.64.61.69-.06 1.24-.35 1.63-.87s.59-1.24.59-2.14v-3.42c-.37.04-.74.08-1.12.11v3.39z" fill="#fff"/><path d="m79.55 96.94c-.41-.19-.87-.25-1.41-.17-.74.11-1.48.2-2.23.29v6.12c.74-.09 1.49-.19 2.23-.29.53-.08 1-.27 1.41-.59s.72-.73.95-1.22c.23-.5.34-1.05.34-1.67s-.11-1.14-.34-1.56-.54-.72-.95-.91zm-.05 3.7c-.13.31-.32.56-.56.75s-.52.31-.85.36c-.34.05-.69.1-1.03.14v-3.81c.34-.05.69-.09 1.03-.14.33-.05.61-.01.85.11s.43.31.56.57.2.59.2.98c0 .38-.07.73-.2 1.04z" fill="#fff"/><path d="m86.85 96.91c-.13-.35-.32-.65-.56-.88s-.52-.39-.84-.47-.67-.08-1.06 0c-.38.08-.74.23-1.06.45s-.6.5-.84.83-.43.7-.56 1.11-.2.84-.2 1.3.07.86.2 1.22.32.66.56.9.52.41.85.5c.32.09.68.1 1.06.02s.73-.23 1.05-.46.6-.51.84-.85.43-.72.56-1.14.2-.86.2-1.31c0-.46-.06-.87-.2-1.22zm-1.05 2.3c-.08.25-.18.48-.32.69s-.3.38-.48.52-.38.23-.6.27c-.22.05-.42.04-.6-.02s-.35-.16-.48-.31c-.14-.15-.24-.34-.32-.56s-.11-.48-.11-.77.04-.56.11-.81c.08-.25.18-.48.32-.68s.3-.38.48-.51c.19-.13.39-.22.6-.27.22-.05.42-.04.6.02s.34.16.48.31.25.33.32.55c.08.22.11.47.11.77 0 .29-.04.56-.11.82z" fill="#fff"/><path d="m44.54 36.21 2.24 4.55 5.03-1.27v2l-3.64 3.54.86 3v2l-4.49-2.36-4.49 2.36v-2l.85-3-3.63-3.54v-2l5.02 1.27z" fill="#a81f26"/><path d="m64.39 35.21 2.25 4.55 5.02-1.27v2l-3.63 3.54.85 3v2l-4.49-2.36-4.49 2.36v-2l.86-3-3.64-3.54v-2l5.03 1.27z" fill="#a81f26"/><path d="m84.16 36.21 2.24 4.55 5.02-1.27v2l-3.63 3.54.86 3v2l-4.49-2.36-4.5 2.36v-2l.86-3-3.63-3.54v-2l5.02 1.27z" fill="#a81f26"/><path d="m52.36 51.76 2.25 4.55 5.02-1.27v2l-3.64 3.54.86 3.01v2l-4.49-2.37-4.49 2.37v-2l.86-3.01-3.64-3.54v-2l5.02 1.27z" fill="#a81f26"/><path d="m76.12 51.76 2.25 4.55 5.02-1.27v2l-3.63 3.54.86 3.01v2l-4.5-2.37-4.49 2.37v-2l.86-3.01-3.63-3.54v-2l5.02 1.27z" fill="#a81f26"/><path d="m64.24 65.4 2.25 4.55 5.02-1.27v2l-3.63 3.54.85 3v2l-4.49-2.36-4.49 2.36v-2l.86-3-3.64-3.54v-2l5.03 1.27z" fill="#a81f26"/><path d="m44.54 34.21 2.24 4.55 5.03.73-3.64 3.54.86 5-4.49-2.36-4.49 2.36.85-5-3.63-3.54 5.02-.73z" fill="#fff"/><path d="m64.39 33.21 2.25 4.55 5.02.73-3.63 3.54.85 5-4.49-2.36-4.49 2.36.86-5-3.64-3.54 5.03-.73z" fill="#fff"/><path d="m84.16 34.21 2.24 4.55 5.02.73-3.63 3.54.86 5-4.49-2.36-4.5 2.36.86-5-3.63-3.54 5.02-.73z" fill="#fff"/><path d="m52.36 49.76 2.25 4.55 5.02.73-3.64 3.54.86 5.01-4.49-2.37-4.49 2.37.86-5.01-3.64-3.54 5.02-.73z" fill="#fff"/><path d="m76.12 49.76 2.25 4.55 5.02.73-3.63 3.54.86 5.01-4.5-2.37-4.49 2.37.86-5.01-3.63-3.54 5.02-.73z" fill="#fff"/><path d="m64.24 63.4 2.25 4.55 5.02.73-3.63 3.54.85 5-4.49-2.36-4.49 2.36.86-5-3.64-3.54 5.03-.73z" fill="#fff"/></svg>